# xmcd CD database file
#
# Track frame offsets:
#	150
#	14852
#	35655
#	78385
#	87160
#	100390
#	112505
#	128215
#
# Disc length: 1893 seconds
#
# Revision: 0
# Processed by: cddbd v1.5.2PL0 Copyright (c) Steve Scherf et al.
# Submitted via: CDex 1.70beta3
#
DISCID=5e076308
DTITLE=Sandy Mosse - Relaxin' With Sandy Mosse
DYEAR=1958
DGENRE=Jazz
TTITLE0=Fools Rush In
TTITLE1=I'm Old Fashion
TTITLE2=Birks Works
TTITLE3=Stella By Starlight
TTITLE4=Love Is For The Very Young
TTITLE5=Speak Low
TTITLE6=My Man's Gone Now
TTITLE7=Coconut Sweet
EXTD=YEAR: 1958
EXTT0=
EXTT1=
EXTT2=
EXTT3=
EXTT4=
EXTT5=
EXTT6=
EXTT7=
PLAYORDER=
